<svg width="25" height="24" viewBox="0 0 25 24" fill="none" xmlns="http://www.w3.org/2000/svg">
<mask id="mask0_71766_6020" style="mask-type:alpha" maskUnits="userSpaceOnUse" x="0" y="0" width="25" height="24">
<rect x="0.0683594" width="24" height="24" fill="#D9D9D9"/>
</mask>
<g mask="url(#mask0_71766_6020)">
<path d="M9.61905 15.15L18.0941 6.675C18.2941 6.475 18.5316 6.375 18.8066 6.375C19.0816 6.375 19.3191 6.475 19.5191 6.675C19.7191 6.875 19.8191 7.1125 19.8191 7.3875C19.8191 7.6625 19.7191 7.9 19.5191 8.1L10.3191 17.3C10.1191 17.5 9.88572 17.6 9.61905 17.6C9.35239 17.6 9.11905 17.5 8.91905 17.3L4.61905 13C4.41905 12.8 4.32322 12.5625 4.33155 12.2875C4.33989 12.0125 4.44405 11.775 4.64405 11.575C4.84405 11.375 5.08155 11.275 5.35655 11.275C5.63155 11.275 5.86905 11.375 6.06905 11.575L9.61905 15.15Z" fill="white"/>
</g>
</svg>
