<svg width="26" height="26" viewBox="0 0 26 26" fill="none" xmlns="http://www.w3.org/2000/svg">
<path d="M23.2273 0.48291H2.77273H2.5C1.39543 0.48291 0.5 1.37864 0.5 2.48321C0.5 2.663 0.5 2.79037 0.5 2.82288V23.2774V23.4829C0.5 24.5875 1.39572 25.4829 2.50029 25.4829C2.64377 25.4829 2.74401 25.4829 2.77272 25.4829H23.2273C23.256 25.4829 23.3562 25.4829 23.4997 25.4829C24.6043 25.4829 25.5 24.587 25.5 23.4824C25.5 23.3756 25.5 23.3017 25.5 23.2774V2.82285C25.5 2.79035 25.5 2.66299 25.5 2.48321C25.5 1.37864 24.6043 0.48291 23.4997 0.48291C23.3562 0.48291 23.256 0.48291 23.2273 0.48291ZM15.2727 23.2774H2.77273V14.1865H15.2727V23.2774ZM15.2727 11.9138H2.77273V2.82288L15.2727 2.82285V11.9138ZM23.2273 23.2774H17.5455V2.82288H23.2273V23.2774Z" fill="white"/>
</svg>
